<svg id="Слой_1" data-name="Слой 1" xmlns="http://www.w3.org/2000/svg" viewBox="0 0 439.19 541.33"><title>serg</title><path d="M325.6,124a1.3,1.3,0,1,0,1.3,1.3A1.32,1.32,0,0,0,325.6,124Z" transform="translate(0.15 -0.02)" style="fill:#201600"/><path d="M254,538.7a1.2,1.2,0,0,0,.9,1.2c28,5.8,50.3-16,66.3-35.9,9.2-11.5,18.1-23.5,29.8-32.7a103.28,103.28,0,0,1,86-19.4,1.21,1.21,0,0,0,1.5-.9,1.41,1.41,0,0,0-.1-0.9c-6.4-13.1-6.3-27.9-8.2-42.1-1.7-12.6-5.5-23.6-14.1-33.1-9.4-10.5-21-19.3-21-34.7,0-8.1,1.9-16,1.5-24.2a63,63,0,0,0-4.6-20.5c-2.7-6.6-7-12.4-9.6-19-3.2-7.8-2.2-15.6,2.2-22.7,7.5-12.1,20.6-18.5,30.6-28.2,9.7-9.5,13.4-20.8,10.6-34.2-1.7-7.9-4.7-15.6-7.2-23.3l-8.2-24.9c-8.9-26.9-16.8-54.7-30.9-79.4-13.7-24-33.6-41.3-59.8-50.3C291.7,4,260.3-.1,231,0.6c-28.9.7-57.2,8-80.9,25.1-22.6,16.4-39.8,38.8-56,61.2-8.7,11.9-18.3,24-22.4,38.4-2.3,8-2.8,16.3-5.8,24.1-3.2,8.2-7.7,15.9-11.8,23.7L42.2,195.7a1.36,1.36,0,0,0,.4,1.7l32,13.7c-4.7,9.1-5.2,19.3-5.4,29.4A151.71,151.71,0,0,1,65,274.7a145.53,145.53,0,0,1-30.2,59c-7.1,8.4-15.4,15.1-23.6,22.3C4.9,361.6-1.2,369,.7,378s10.4,16.5,16.9,22.5c6.9,6.3,15.2,12.2,24.9,12.1,11.9-.1,20.6-9.1,29.6-15.5,5.5-3.9,12.1-8,19.2-7.3,6.9,0.6,13.6,5.7,13.2,13.1a1.32,1.32,0,0,0,1.3,1.3h0.3c8.8-2.3,16.7,4.5,19.4,12.5,2.5,7.6,1.4,15.8.5,23.6a1.4,1.4,0,0,0,1.3,1.3,104.43,104.43,0,0,1,55.5,22.9,1.27,1.27,0,0,0,1.8,0,206.1,206.1,0,0,1,57.5-46.3c3.4-1.8,6.8-3.6,10.3-5.2,2.2-1,4.5-2.4,7-2.6,0.9-.1,6.7,0,5.5,2.8-0.3.7-7.1,3.6-6.6,3.9" transform="translate(0.15 -0.02)" style="fill:none;stroke:#201600;stroke-miterlimit:10"/><path d="M271.9,423.5c0.5,0.3-5.1-8.6-4.7-9.4,2.4-5.4-4.7-7.1-8.7-6.4s-8,3.2-11.6,5c-4.9,2.5-9.8,5.1-14.5,8a212.21,212.21,0,0,0-48.7,40.9A106.53,106.53,0,0,0,128.9,439c1.2-9.6,2.2-20.5-3.5-28.9-4-6.1-10.9-10-18.1-8.8-0.4-6.9-6.2-12-12.8-13.6-9-2.2-17.7,3-24.6,8.2-9.1,6.8-18.7,16.1-31.2,13.9-11.4-2-20.4-11.8-27.8-20-3.8-4.2-7.7-9.2-7.8-15.1-0.1-6.6,4.5-11.7,9-15.9,7.6-7,15.7-13.1,22.6-20.9A147.79,147.79,0,0,0,65,284.5a142.41,142.41,0,0,0,6.4-34.2c0.8-13.2-.8-27.1,6.1-39.1a1.36,1.36,0,0,0-.4-1.7l-32-13.7c7.5-14.2,15.9-28.2,22.2-42.9,2.9-6.6,4.1-13.5,5.5-20.5a69.9,69.9,0,0,1,8.9-22.8C89,96.9,98.1,85.2,107,73.7a268,268,0,0,1,28.1-32.1A135,135,0,0,1,214,4.3c29.5-3.5,60.3.2,89.1,7.1,14.8,3.6,29.5,8.8,42.1,17.5,11.3,7.8,20.6,18.2,28,29.7,15.1,23.5,23.1,50.7,31.8,77,5.3,15.9,10.7,31.7,15.7,47.7,2.5,8,4.7,16.6,2.5,24.9-1.9,6.9-6.5,12.5-11.7,17.2-9.5,8.7-21.1,15-28.5,25.9-7.1,10.5-6.1,21.2-.3,32,3.7,6.9,7.4,13.4,9.4,21.1a66.92,66.92,0,0,1,1.3,24c-0.8,7.1-1.8,14.5.3,21.5a38.71,38.71,0,0,0,7.4,12.9c8.6,10.4,19.3,18.1,23.6,31.4,4.1,12.7,3.7,26.2,5.9,39.2a68.94,68.94,0,0,0,4.5,15.5c-34-6.8-70.4,3.9-95,28.6-14.4,14.5-24.7,32.7-40.5,45.8-8,6.7-17.4,12.1-27.7,14.2-2.6.5-13.3,2.3-15.2-.3-1-1.4-.5-5.5-0.5-7.2v-9.6a301.57,301.57,0,0,1,7.9-62.8l-0.3,3.4c-0.1,1.6,2.4,1.6,2.5,0l1.8-19a1.06,1.06,0,0,0-1-1.2" transform="translate(0.15 -0.02)" style="fill:none;stroke:#999896;stroke-miterlimit:10;stroke-width:0.75px"/><path d="M100.3,193.8a1.37,1.37,0,0,0-1.8-.1,1.36,1.36,0,0,0-.2,1.6c4.5,7.6,8.6,15.8,13.6,23.1,3.9,5.7,8.4,4.9,14.5,3.8,8.5-1.5,15.4,3,21.2,9.3a5.59,5.59,0,0,0-3.5-.9c-5,.8-7,8-12.4,7.1-3.3-.5-7.1-3.6-10.1-5.2l-10.9-5.9a1.28,1.28,0,0,0-1.7.5,1.41,1.41,0,0,0-.1.9,62.92,62.92,0,0,0,17.8,33.2" transform="translate(0.15 -0.02)" style="fill:none;stroke:#000103;stroke-miterlimit:10"/><path d="M165.2,252.3a53.63,53.63,0,0,0-6.9-10.6c-5.6-8.6-12.1-17.4-21.2-21a17.36,17.36,0,0,0-7.8-1.3c-4.9.3-9.7,3.1-13.8-.7-3.3-3-5.3-8.1-7.6-12l-0.8-1.3,0.1,0.1" transform="translate(0.15 -0.02)" style="fill:none;stroke:#000103;stroke-miterlimit:10"/><path d="M118.4,237.5a63.36,63.36,0,0,1,7.2,19.3,59.3,59.3,0,0,1-13.8-26.5c5.3,2.9,10.6,5.9,16.1,8.6,3.5,1.7,6.2,2.2,9.5-.2,1.6-1.1,2.7-2.8,4.3-3.9,3.8-2.7,6.9.7,9.7,3.3a49.85,49.85,0,0,1,5,5.3c2.4,3.6,4.5,7.2,6.5,10.1" transform="translate(0.15 -0.02)" style="fill:none;stroke:#000103;stroke-miterlimit:10"/></svg>